<svg width="169" height="162" viewBox="0 0 169 162" fill="none" xmlns="http://www.w3.org/2000/svg">
<g clip-path="url(#clip0_14273_1953)">
<path d="M35.2974 61.5911C33.1878 46.6432 21.8931 41.7637 25.0026 32.1765C30.6521 14.7512 73.2445 14.6466 80.1934 14.6089C102.749 14.5419 139.338 14.4373 154.337 40.3451C161.248 52.2842 151.155 59.3773 155.573 89.7795C158.193 107.824 161.965 110.004 160.104 117.968C154.48 142.005 113.272 151.358 107.365 152.701C63.3843 162.682 7.7927 148.768 3.57354 126.145C-0.185723 105.908 39.4828 91.2275 35.2974 61.5911Z" fill="#632ABB" fill-opacity="0.5"/>
<path d="M15.1172 106.937C12.6701 101.656 0.202449 74.7144 11.822 58.3228C18.5727 48.8067 27.0531 51.7904 43.5374 41.1653C65.9791 26.6986 62.8527 13.0396 78.9783 4.80821C100.428 -6.15584 136.422 2.51915 146.94 21.9657C157.109 40.7678 136.253 56.3225 146.097 84.0632C153.518 104.937 169.015 106.519 168.753 120.014C168.37 139.478 135.692 159.037 106.145 161.686C65.8947 165.298 29.3652 137.703 15.1172 106.937Z" fill="#632ABB" fill-opacity="0.6"/>
<path d="M165.806 88.7249C166.397 85.1159 163.926 81.7153 160.287 81.1295C156.649 80.5436 153.22 82.9944 152.629 86.6034C152.039 90.2125 154.51 93.6131 158.148 94.1989C161.787 94.7848 165.216 92.334 165.806 88.7249Z" fill="#DC49A6"/>
<path d="M24.6766 24.8764C25.1434 22.915 23.9186 20.9496 21.941 20.4867C19.9634 20.0237 17.9819 21.2385 17.5152 23.1999C17.0484 25.1614 18.2732 27.1268 20.2508 27.5897C22.2283 28.0526 24.2099 26.8379 24.6766 24.8764Z" fill="#DC49A6"/>
<path d="M16.2506 45.8231C19.937 45.8231 22.9253 42.8591 22.9253 39.2028C22.9253 35.5465 19.937 32.5825 16.2506 32.5825C12.5643 32.5825 9.57593 35.5465 9.57593 39.2028C9.57593 42.8591 12.5643 45.8231 16.2506 45.8231Z" fill="#DC49A6"/>
<path d="M20.3258 29.2179C22.3577 29.2179 24.0049 27.5841 24.0049 25.5688C24.0049 23.5534 22.3577 21.9197 20.3258 21.9197C18.2939 21.9197 16.6467 23.5534 16.6467 25.5688C16.6467 27.5841 18.2939 29.2179 20.3258 29.2179Z" fill="#DC49A6"/>
<path d="M21.8679 135.883C23.8999 135.883 25.547 134.249 25.547 132.234C25.547 130.218 23.8999 128.585 21.8679 128.585C19.836 128.585 18.1888 130.218 18.1888 132.234C18.1888 134.249 19.836 135.883 21.8679 135.883Z" fill="#DC49A6"/>
<path d="M168.714 73.2988C169.181 71.3373 167.956 69.372 165.978 68.909C164.001 68.4461 162.019 69.6608 161.553 71.6223C161.086 73.5837 162.311 75.5491 164.288 76.0121C166.266 76.475 168.247 75.2602 168.714 73.2988Z" fill="#DC49A6"/>
<path d="M17.7325 112.093L19.1206 110.716C19.2645 110.565 19.3432 110.364 19.3402 110.156C19.3371 109.948 19.2525 109.749 19.1042 109.602C18.956 109.455 18.7558 109.371 18.5462 109.368C18.3365 109.365 18.134 109.443 17.9814 109.586L16.5933 110.963L15.2052 109.586C15.0542 109.436 14.8491 109.351 14.635 109.351C14.421 109.35 14.2156 109.434 14.064 109.584C13.9123 109.734 13.8269 109.937 13.8265 110.15C13.8261 110.362 13.9108 110.566 14.0619 110.716L15.45 112.093L14.0661 113.47C13.9908 113.543 13.9311 113.631 13.8903 113.728C13.8495 113.825 13.8285 113.929 13.8285 114.034C13.8285 114.14 13.8495 114.244 13.8903 114.341C13.9311 114.437 13.9908 114.525 14.0661 114.599C14.2172 114.749 14.422 114.833 14.6357 114.833C14.8493 114.833 15.0541 114.749 15.2052 114.599L16.5933 113.227L17.9772 114.599C18.0525 114.674 18.142 114.733 18.2405 114.774C18.339 114.814 18.4445 114.834 18.551 114.834C18.657 114.835 18.762 114.814 18.8599 114.774C18.9577 114.734 19.0464 114.674 19.1206 114.599C19.1959 114.525 19.2556 114.437 19.2964 114.341C19.3372 114.244 19.3582 114.14 19.3582 114.034C19.3582 113.929 19.3372 113.825 19.2964 113.728C19.2556 113.631 19.1959 113.543 19.1206 113.47L17.7325 112.093Z" fill="#8746EB"/>
<path d="M161.066 103.748L162.454 102.371C162.605 102.221 162.69 102.017 162.689 101.805C162.689 101.593 162.604 101.389 162.452 101.239C162.3 101.09 162.095 101.006 161.881 101.006C161.667 101.006 161.462 101.091 161.311 101.242L159.923 102.618L158.535 101.242C158.382 101.099 158.179 101.021 157.97 101.024C157.76 101.027 157.56 101.111 157.412 101.258C157.263 101.405 157.179 101.603 157.176 101.811C157.173 102.019 157.252 102.22 157.395 102.371L158.783 103.748L157.395 105.125C157.32 105.199 157.26 105.287 157.22 105.384C157.179 105.481 157.158 105.585 157.158 105.69C157.158 105.795 157.179 105.899 157.22 105.996C157.26 106.093 157.32 106.181 157.395 106.255C157.47 106.33 157.558 106.389 157.656 106.43C157.754 106.47 157.859 106.49 157.965 106.489C158.071 106.49 158.177 106.469 158.276 106.429C158.374 106.389 158.463 106.33 158.539 106.255L159.923 104.882L161.311 106.255C161.462 106.405 161.667 106.489 161.88 106.489C162.094 106.489 162.299 106.405 162.45 106.255C162.525 106.181 162.585 106.093 162.626 105.996C162.666 105.899 162.687 105.795 162.687 105.69C162.687 105.585 162.666 105.481 162.626 105.384C162.585 105.287 162.525 105.199 162.45 105.125L161.066 103.748Z" fill="#8746EB"/>
<path d="M131.549 4.9505L133.005 3.64486C133.146 3.49813 133.227 3.30362 133.23 3.10047C133.232 2.89732 133.158 2.70063 133.02 2.54998C132.883 2.39934 132.693 2.30593 132.489 2.28857C132.285 2.2712 132.082 2.33117 131.92 2.45639L130.465 3.76622L129.148 2.32248C129.077 2.24444 128.992 2.18102 128.896 2.13585C128.8 2.09067 128.697 2.06462 128.591 2.05918C128.485 2.05374 128.379 2.06902 128.279 2.10414C128.18 2.13927 128.088 2.19355 128.009 2.26389C127.93 2.33423 127.866 2.41926 127.821 2.51411C127.775 2.60896 127.749 2.71178 127.744 2.8167C127.738 2.92162 127.754 3.02658 127.789 3.1256C127.824 3.22461 127.879 3.31574 127.95 3.39377L129.266 4.8417L127.815 6.14315C127.736 6.21313 127.671 6.29802 127.625 6.3929C127.579 6.48778 127.553 6.59075 127.547 6.69586C127.542 6.80096 127.558 6.9061 127.593 7.00518C127.629 7.10426 127.684 7.1953 127.756 7.27304C127.826 7.35166 127.912 7.4155 128.007 7.46078C128.103 7.50606 128.207 7.53187 128.313 7.53667C128.419 7.5424 128.525 7.52722 128.625 7.49202C128.725 7.45682 128.817 7.4023 128.895 7.33162L130.351 6.02598L131.663 7.46972C131.809 7.62514 132.01 7.71941 132.224 7.73336C132.383 7.73998 132.541 7.69988 132.677 7.61808C132.814 7.53628 132.923 7.41641 132.991 7.27347C133.059 7.13054 133.083 6.97088 133.06 6.81449C133.037 6.6581 132.967 6.51192 132.861 6.39424L131.549 4.9505Z" fill="#8746EB"/>
<path d="M20.3699 67.3745L21.758 65.9977C21.9091 65.8473 21.9937 65.6436 21.9933 65.4313C21.993 65.219 21.9076 65.0156 21.7559 64.8657C21.6043 64.7159 21.3989 64.6319 21.1848 64.6323C20.9708 64.6327 20.7657 64.7174 20.6146 64.8678L19.2265 66.2446L17.8384 64.8636C17.6859 64.7209 17.4834 64.6428 17.2737 64.6458C17.0641 64.6489 16.8639 64.7328 16.7156 64.8799C16.5674 65.0269 16.4828 65.2255 16.4797 65.4334C16.4766 65.6413 16.5554 65.8422 16.6993 65.9935L18.0874 67.3703L16.6993 68.7471C16.5493 68.8975 16.4652 69.1005 16.4652 69.312C16.4652 69.5235 16.5493 69.7265 16.6993 69.877C16.8511 70.027 17.0567 70.1112 17.271 70.1112C17.4853 70.1112 17.6908 70.027 17.8427 69.877L19.2265 68.5044L20.6146 69.877C20.7672 70.0196 20.9697 70.0978 21.1794 70.0947C21.389 70.0917 21.5892 70.0078 21.7374 69.8607C21.8857 69.7137 21.9703 69.5151 21.9734 69.3072C21.9765 69.0993 21.8977 68.8983 21.7538 68.7471L20.3699 67.3745Z" fill="#8746EB"/>
<path d="M5.25223 105.234C5.3226 105.346 5.36934 105.472 5.38964 105.603C5.40994 105.734 5.40338 105.867 5.37036 105.995C5.32866 106.167 5.24185 106.324 5.1188 106.451C4.99575 106.578 4.84087 106.671 4.66998 106.719L1.29466 107.703C1.12428 107.752 0.943929 107.755 0.771667 107.713C0.599404 107.672 0.441271 107.585 0.3131 107.464C0.184929 107.342 0.0912173 107.189 0.0413427 107.02C-0.0085319 106.852 -0.012821 106.673 0.0289111 106.502L0.872742 103.095C0.914789 102.924 1.00185 102.766 1.12512 102.638C1.24839 102.51 1.40349 102.417 1.57475 102.368C1.74601 102.318 1.92735 102.315 2.10042 102.357C2.2735 102.4 2.43217 102.487 2.5604 102.61L5.11299 105.033C5.16787 105.094 5.21467 105.161 5.25223 105.234ZM0.813674 106.849C0.823031 106.864 0.83438 106.879 0.847428 106.891C0.873794 106.918 0.907098 106.936 0.943611 106.945C0.980123 106.954 1.01841 106.953 1.05417 106.941L4.42949 105.962C4.46592 105.952 4.49893 105.932 4.52519 105.905C4.55144 105.878 4.57 105.844 4.57899 105.807C4.58799 105.771 4.58709 105.733 4.5764 105.697C4.56571 105.661 4.54559 105.628 4.51809 105.602L1.96551 103.183C1.9389 103.157 1.90569 103.138 1.86931 103.129C1.83292 103.119 1.79468 103.12 1.75855 103.13C1.72241 103.14 1.68969 103.16 1.66377 103.187C1.63785 103.214 1.61966 103.247 1.61109 103.284L0.767263 106.686C0.764727 106.716 0.769102 106.746 0.780062 106.775C0.791021 106.803 0.808285 106.828 0.830554 106.849H0.813674Z" fill="#8746EB"/>
<path d="M52.3634 4.60319C52.4336 4.71654 52.4803 4.84271 52.5006 4.97424C52.5209 5.10577 52.5144 5.24 52.4815 5.369C52.4414 5.54042 52.3556 5.69801 52.2332 5.82535C52.1107 5.95269 51.9561 6.04511 51.7853 6.09297L48.41 7.0722C48.2396 7.12112 48.0593 7.12479 47.887 7.08284C47.7148 7.0409 47.5566 6.95481 47.4285 6.83319C47.3003 6.71158 47.2066 6.5587 47.1567 6.38987C47.1068 6.22103 47.1025 6.04217 47.1443 5.87117L47.9881 2.46897C48.0303 2.29741 48.1173 2.13985 48.2402 2.01206C48.3631 1.88428 48.5177 1.79075 48.6885 1.74083C48.8589 1.69025 49.0399 1.6857 49.2127 1.72763C49.3855 1.76956 49.5439 1.85645 49.6715 1.97936L52.203 4.40233C52.2634 4.46355 52.3171 4.53087 52.3634 4.60319ZM47.9248 6.23525C47.9342 6.25301 47.9471 6.26867 47.9628 6.28128C47.9897 6.30707 48.023 6.32532 48.0593 6.33414C48.0956 6.34297 48.1337 6.34205 48.1695 6.3315L51.5448 5.34808C51.5813 5.33839 51.6144 5.31918 51.6408 5.29247C51.6673 5.26575 51.686 5.23249 51.695 5.19617C51.7041 5.15984 51.7031 5.12178 51.6923 5.08593C51.6815 5.05009 51.6611 5.01778 51.6334 4.99238L49.0809 2.56941C49.0529 2.54397 49.0188 2.52601 48.9819 2.51722C48.945 2.50844 48.9065 2.50911 48.8699 2.51919C48.8338 2.5299 48.8011 2.54984 48.7752 2.57701C48.7493 2.60419 48.731 2.63764 48.7222 2.67402L47.8784 6.07623C47.8746 6.10448 47.8767 6.13321 47.8847 6.16059C47.8927 6.18797 47.9064 6.2134 47.9248 6.23525Z" fill="#8746EB"/>
<path d="M160.893 142.135C160.774 142.234 160.634 142.305 160.484 142.343C160.333 142.38 160.176 142.382 160.024 142.349C159.872 142.316 159.73 142.249 159.609 142.154C159.487 142.058 159.39 141.935 159.323 141.796L157.821 138.624C157.746 138.465 157.714 138.288 157.729 138.113C157.744 137.938 157.806 137.769 157.907 137.625C158.008 137.48 158.146 137.365 158.306 137.29C158.467 137.214 158.644 137.183 158.821 137.197L162.344 137.494C162.522 137.508 162.692 137.569 162.838 137.669C162.984 137.77 163.101 137.907 163.176 138.067C163.252 138.227 163.283 138.403 163.267 138.579C163.252 138.755 163.189 138.923 163.087 139.068L161.07 141.942C161.021 142.015 160.961 142.08 160.893 142.135ZM158.598 138.034L158.56 138.076C158.541 138.108 158.531 138.145 158.531 138.182C158.531 138.22 158.541 138.257 158.56 138.289L160.062 141.461C160.078 141.495 160.102 141.525 160.134 141.546C160.165 141.567 160.201 141.58 160.239 141.583C160.276 141.586 160.313 141.579 160.347 141.563C160.38 141.547 160.409 141.522 160.429 141.491L162.45 138.616C162.469 138.584 162.479 138.548 162.479 138.511C162.479 138.474 162.469 138.438 162.45 138.406C162.435 138.372 162.411 138.343 162.381 138.321C162.35 138.3 162.314 138.287 162.277 138.285L158.754 137.988C158.726 137.985 158.698 137.987 158.671 137.995C158.644 138.003 158.619 138.016 158.598 138.034Z" fill="#8746EB"/>
<path d="M160.775 53.2174C160.736 53.3445 160.671 53.4624 160.585 53.5638C160.499 53.6653 160.392 53.7482 160.273 53.8075C160.115 53.8882 159.939 53.926 159.762 53.9172C159.585 53.9084 159.413 53.8532 159.264 53.7573L156.311 51.8574C156.162 51.7616 156.041 51.6286 155.96 51.4717C155.879 51.3149 155.841 51.1397 155.85 50.9637C155.859 50.7877 155.915 50.6172 156.011 50.4693C156.107 50.3213 156.241 50.2011 156.4 50.1207L159.543 48.5179C159.701 48.4376 159.878 48.4 160.056 48.409C160.233 48.418 160.405 48.4732 160.554 48.569C160.704 48.6649 160.825 48.798 160.906 48.9551C160.987 49.1122 161.024 49.2876 161.015 49.4637L160.838 52.9622C160.83 53.0499 160.809 53.1359 160.775 53.2174ZM156.64 50.9451C156.639 50.9646 156.639 50.9842 156.64 51.0037C156.639 51.0411 156.647 51.0782 156.665 51.1113C156.683 51.1444 156.709 51.1722 156.741 51.192L159.695 53.0919C159.727 53.1106 159.765 53.1205 159.802 53.1205C159.84 53.1205 159.877 53.1106 159.91 53.0919C159.943 53.0758 159.972 53.0508 159.992 53.0198C160.012 52.9888 160.023 52.953 160.024 52.9161L160.201 49.4135C160.202 49.3765 160.194 49.3398 160.177 49.3068C160.16 49.2739 160.135 49.2458 160.104 49.2252C160.071 49.2072 160.034 49.1978 159.996 49.1978C159.959 49.1978 159.922 49.2072 159.889 49.2252L156.746 50.8237C156.696 50.8491 156.658 50.8926 156.64 50.9451Z" fill="#8746EB"/>
<path d="M88.586 15.9883C90.4409 14.6712 92.9254 14.6712 94.7803 15.9883L150.104 55.2725C152.135 56.7148 152.704 58.9967 152.18 60.9864V124.24C152.18 129.165 148.187 133.156 143.263 133.156H40.1026C35.1784 133.156 31.1867 129.165 31.1866 124.24V60.9874C30.6614 58.9974 31.2313 56.7151 33.2627 55.2725L88.586 15.9883Z" fill="#4D64DE"/>
<mask id="mask0_14273_1953" style="mask-type:alpha" maskUnits="userSpaceOnUse" x="31" y="15" width="122" height="119">
<path d="M89.8025 15.8319C90.9248 15.0209 92.441 15.0209 93.5632 15.8319L150.734 57.1493C151.284 57.5471 151.653 58.048 151.861 58.5878C152.063 58.9483 152.179 59.3638 152.179 59.8065V124.24C152.179 129.164 148.188 133.156 143.263 133.156H40.1023C35.1782 133.156 31.1865 129.164 31.1863 124.24V59.8065C31.1863 59.3653 31.3019 58.9514 31.5027 58.5917C31.7106 58.0503 32.0799 57.5481 32.6316 57.1493L89.8025 15.8319Z" fill="#6600EB"/>
</mask>
<g mask="url(#mask0_14273_1953)">
<rect x="48.1614" y="65.7974" width="88.1264" height="39.0068" fill="white"/>
<path d="M31.1863 133.66V65.3984L152.902 133.66H31.1863Z" fill="url(#paint0_linear_14273_1953)"/>
<path d="M152.902 133.66V65.3984L31.1864 133.66H152.902Z" fill="url(#paint1_linear_14273_1953)"/>
<path d="M86.7502 86.8506C89.6768 84.3717 93.9665 84.3717 96.8931 86.8506L146.805 129.127C152.381 133.851 149.041 142.961 141.733 142.961H41.91C34.6025 142.961 31.2625 133.851 36.8386 129.127L86.7502 86.8506Z" fill="#AC6EFC"/>
</g>
<path d="M48.1615 34.0142H119.168C128.623 34.0142 136.288 41.6789 136.288 51.1338V66.881H48.1615V34.0142Z" fill="white"/>
<path d="M48.1615 34.0142H119.168C128.623 34.0142 136.288 41.6789 136.288 51.1338V66.881H48.1615V34.0142Z" fill="white"/>
<path d="M47.5389 33.9766C47.9125 33.9766 48.283 33.99 48.6503 34.0146H117.868C118.125 34.0146 118.381 34.0211 118.635 34.0332C110.116 34.432 103.301 41.3466 103.06 49.9062H46.7167V49.8682H31.1874C31.4348 41.0495 38.6604 33.9766 47.5389 33.9766Z" fill="url(#paint2_linear_14273_1953)"/>
<path d="M114.256 75.1506H69.1095V72.9836H114.256V75.1506ZM114.256 67.927H69.1095V65.76H114.256V67.927ZM114.256 60.7034H69.1095V58.5364H114.256V60.7034Z" fill="url(#paint3_linear_14273_1953)"/>
<path d="M127.5 69C139.374 69 149 59.3741 149 47.5C149 35.6259 139.374 26 127.5 26C115.626 26 106 35.6259 106 47.5C106 59.3741 115.626 69 127.5 69Z" fill="url(#paint4_linear_14273_1953)"/>
<path fill-rule="evenodd" clip-rule="evenodd" d="M123.293 40.2488C122.885 39.8683 122.345 39.6611 121.787 39.671C121.229 39.6808 120.696 39.9069 120.301 40.3016C119.907 40.6963 119.681 41.2287 119.671 41.7868C119.661 42.3449 119.868 42.885 120.249 43.2934L125.189 48.2336L120.249 53.1738C119.868 53.5822 119.661 54.1223 119.671 54.6804C119.681 55.2384 119.907 55.7709 120.301 56.1656C120.696 56.5603 121.229 56.7863 121.787 56.7962C122.345 56.806 122.885 56.5989 123.293 56.2184L128.233 51.2781L133.174 56.2184C133.582 56.5989 134.122 56.806 134.68 56.7962C135.238 56.7863 135.771 56.5603 136.165 56.1656C136.56 55.7709 136.786 55.2384 136.796 54.6804C136.806 54.1223 136.599 53.5822 136.218 53.1738L131.278 48.2336L136.218 43.2934C136.599 42.885 136.806 42.3449 136.796 41.7868C136.786 41.2287 136.56 40.6963 136.165 40.3016C135.771 39.9069 135.238 39.6808 134.68 39.671C134.122 39.6611 133.582 39.8683 133.174 40.2488L128.233 45.189L123.293 40.2488Z" fill="white"/>
</g>
<defs>
<linearGradient id="paint0_linear_14273_1953" x1="14.4469" y1="82.0909" x2="70.4469" y2="99.5909" gradientUnits="userSpaceOnUse">
<stop stop-color="#1179FC"/>
<stop offset="1" stop-color="#9747FF"/>
</linearGradient>
<linearGradient id="paint1_linear_14273_1953" x1="169.641" y1="82.0909" x2="113.641" y2="99.5909" gradientUnits="userSpaceOnUse">
<stop stop-color="#1179FC"/>
<stop offset="1" stop-color="#9747FF"/>
</linearGradient>
<linearGradient id="paint2_linear_14273_1953" x1="75.9971" y1="33.9766" x2="75.9971" y2="49.8685" gradientUnits="userSpaceOnUse">
<stop stop-color="#B4C0FF"/>
<stop offset="1" stop-color="#DEE3FF"/>
</linearGradient>
<linearGradient id="paint3_linear_14273_1953" x1="69.1095" y1="75.1506" x2="114.256" y2="75.1506" gradientUnits="userSpaceOnUse">
<stop stop-color="#B5C0FF"/>
<stop offset="1" stop-color="#B5C0FF" stop-opacity="0"/>
</linearGradient>
<linearGradient id="paint4_linear_14273_1953" x1="127.5" y1="26" x2="127.5" y2="69" gradientUnits="userSpaceOnUse">
<stop stop-color="#E34C3D"/>
<stop offset="1" stop-color="#DB1E0A"/>
</linearGradient>
<clipPath id="clip0_14273_1953">
<rect width="168.821" height="162" fill="white"/>
</clipPath>
</defs>
</svg>
